<?xml version="1.0" standalone="no"?>
<svg xmlns="http://www.w3.org/2000/svg" viewBox="0 0 101.416 117.104" width="101.416" height="117.104"><polygon fill="#ff7c7c" points="101.416,29.276 101.416,87.828 50.708,117.104 0,87.828 0,29.276 50.708,0"></polygon><g fill="white" color="white" transform="translate(28.708 22.5) scale(0.8148149)"><svg width="54.0" height="54.0" x="0.0" y="0.0" viewBox="0 0 54 54"><path fill="currentColor" fill-rule="evenodd" d="M.855 53.98c-.7.18-1.224-.903-.525-1.264 5.77-2.166 8.392-4.333 9.966-6.679-6.119-4.513-6.818-9.75-1.924-15.888 4.72 2.89 6.294 9.028 3.671 13.902 2.973-3.973 5.07-8.305 7.343-12.638-6.294-5.054-6.993-11.555-2.098-19.316 4.545 3.972 5.245 10.11 2.448 18.775 2.271-4.152 4.545-8.125 8.217-11.554C23.757 10.832 25.155 4.334 32.148 0c1.922 6.138.7 12.457-3.67 18.956 1.747-1.625 7.167-5.235 9.09-5.957 3.845-6.5 9.264-8.305 16.432-5.416-1.922 7.22-9.964 10.47-16.083 6.68-5.769 2.528-9.44 5.957-12.412 9.748 5.07-3.79 11.013-4.874 18.008-3.068-3.847 7.763-10.141 9.026-18.533 3.792-2.973 3.971-5.07 8.665-7.518 13.178 3.847-5.237 9.267-7.041 16.085-5.777-3.497 6.499-8.917 8.484-16.085 5.777C13.792 44.232 9.595 50.37.855 53.98"></path></svg></g><path fill="white" fill-rule="nonzero" d="M9.80 20.10Q7.00 20.10 4.77 18.89Q2.55 17.67 1.27 15.39Q0 13.10 0 10.05L0 10.05Q0 7.00 1.27 4.72Q2.55 2.44 4.77 1.22Q7.00 0 9.80 0L9.80 0Q11.70 0 13.20 0.45Q14.70 0.90 16.18 1.74L16.18 1.74Q16.80 2.07 16.80 2.80L16.80 2.80Q16.80 3.22 16.49 3.54Q16.18 3.86 15.68 3.86L15.68 3.86Q15.40 3.86 15.18 3.75L15.18 3.75Q13.94 3.11 12.77 2.77Q11.59 2.44 10.05 2.44L10.05 2.44Q7.64 2.44 5.95 3.43Q4.26 4.42 3.40 6.15Q2.55 7.87 2.55 10.05L2.55 10.05Q2.55 12.24 3.40 13.96Q4.26 15.68 5.95 16.67Q7.64 17.67 10.05 17.67L10.05 17.67Q11.59 17.67 12.77 17.33Q13.94 17.00 15.18 16.35L15.18 16.35Q15.40 16.24 15.68 16.24L15.68 16.24Q16.18 16.24 16.49 16.55Q16.80 16.86 16.80 17.30L16.80 17.30Q16.80 18.03 16.18 18.37L16.18 18.37Q14.70 19.21 13.20 19.66Q11.70 20.10 9.80 20.10L9.80 20.10ZM28.70 20.10Q25.90 20.10 23.67 18.89Q21.45 17.67 20.17 15.39Q18.90 13.10 18.90 10.05L18.90 10.05Q18.90 7.00 20.17 4.72Q21.45 2.44 23.67 1.22Q25.90 0 28.70 0L28.70 0Q30.60 0 32.10 0.45Q33.60 0.90 35.08 1.74L35.08 1.74Q35.70 2.07 35.70 2.80L35.70 2.80Q35.70 3.22 35.39 3.54Q35.08 3.86 34.58 3.86L34.58 3.86Q34.30 3.86 34.08 3.75L34.08 3.75Q32.84 3.11 31.67 2.77Q30.49 2.44 28.95 2.44L28.95 2.44Q26.54 2.44 24.85 3.43Q23.16 4.42 22.30 6.15Q21.45 7.87 21.45 10.05L21.45 10.05Q21.45 12.24 22.30 13.96Q23.16 15.68 24.85 16.67Q26.54 17.67 28.95 17.67L28.95 17.67Q30.49 17.67 31.67 17.33Q32.84 17.00 34.08 16.35L34.08 16.35Q34.30 16.24 34.58 16.24L34.58 16.24Q35.08 16.24 35.39 16.55Q35.70 16.86 35.70 17.30L35.70 17.30Q35.70 18.03 35.08 18.37L35.08 18.37Q33.60 19.21 32.10 19.66Q30.60 20.10 28.70 20.10L28.70 20.10Z" transform="translate(32.858, 74.5)"></path></svg>